<svg width="56" height="19" viewBox="0 0 56 19" fill="none" xmlns="http://www.w3.org/2000/svg">
<g clip-path="url(#clip0_30_8)">
<path d="M16.3565 5.9029L13.9523 3.83877C13.9523 3.83877 7.53024 8.7452 8.03457 9.27823C8.5389 9.81126 13.8507 6.58878 13.8507 6.58878L16.4457 8.69775L21.5347 4.80349C21.5347 4.80349 23.2688 6.95107 23.8745 6.77592C24.5229 6.58842 25.0969 1.12514 24.7729 0.646865C24.3547 0.029369 18.5643 -0.293728 18.2493 0.358429C17.9545 0.968739 19.7453 3.05752 19.7453 3.05752L16.3565 5.9029Z" fill="black"/>
<path d="M7.63805 17.4671H6.57005L5.68205 14.8391H2.38205L1.44605 17.4671H0.498047L3.48605 8.93506H4.62605L7.63805 17.4671ZM5.40605 14.0351L4.02605 9.95506H4.00205L2.63405 14.0351H5.40605ZM13.7608 14.5631C13.7608 14.9471 13.7048 15.3231 13.5928 15.6911C13.4888 16.0511 13.3328 16.3711 13.1248 16.6511C12.9088 16.9311 12.6448 17.1551 12.3328 17.3231C12.0288 17.4911 11.6728 17.5751 11.2648 17.5751C10.7848 17.5751 10.4048 17.4591 10.1249 17.2271C9.85286 16.9951 9.65686 16.7151 9.53686 16.3871H9.51286V19.7231H8.63686V11.5511H9.51286V12.6671H9.53686C9.58486 12.5231 9.65686 12.3791 9.75286 12.2351C9.84886 12.0831 9.97286 11.9471 10.1249 11.8271C10.2689 11.7071 10.4368 11.6111 10.6288 11.5391C10.8288 11.4591 11.0608 11.4191 11.3248 11.4191C11.6608 11.4191 11.9768 11.4911 12.2728 11.6351C12.5688 11.7711 12.8248 11.9711 13.0408 12.2351C13.2648 12.4991 13.4408 12.8271 13.5688 13.2191C13.6968 13.6111 13.7608 14.0591 13.7608 14.5631ZM12.8008 14.5511C12.8008 14.2311 12.7648 13.9231 12.6928 13.6271C12.6288 13.3311 12.5328 13.0751 12.4048 12.8591C12.2688 12.6351 12.1008 12.4591 11.9008 12.3311C11.7088 12.1951 11.4808 12.1271 11.2168 12.1271C10.7608 12.1271 10.3729 12.3391 10.0529 12.7631C9.73286 13.1871 9.57286 13.7471 9.57286 14.4431C9.57286 14.6831 9.60086 14.9431 9.65686 15.2231C9.71286 15.5031 9.80886 15.7671 9.94486 16.0151C10.0729 16.2551 10.2409 16.4551 10.4488 16.6151C10.6648 16.7751 10.9288 16.8551 11.2408 16.8551C11.5048 16.8551 11.7328 16.7911 11.9248 16.6631C12.1248 16.5351 12.2888 16.3671 12.4168 16.1591C12.5448 15.9431 12.6408 15.6991 12.7048 15.4271C12.7688 15.1471 12.8008 14.8551 12.8008 14.5511ZM20.1827 14.5631C20.1827 14.9471 20.1267 15.3231 20.0147 15.6911C19.9107 16.0511 19.7547 16.3711 19.5467 16.6511C19.3307 16.9311 19.0667 17.1551 18.7547 17.3231C18.4507 17.4911 18.0947 17.5751 17.6867 17.5751C17.2067 17.5751 16.8267 17.4591 16.5467 17.2271C16.2747 16.9951 16.0787 16.7151 15.9587 16.3871H15.9347V19.7231H15.0587V11.5511H15.9347V12.6671H15.9587C16.0067 12.5231 16.0787 12.3791 16.1747 12.2351C16.2707 12.0831 16.3947 11.9471 16.5467 11.8271C16.6907 11.7071 16.8587 11.6111 17.0507 11.5391C17.2507 11.4591 17.4827 11.4191 17.7467 11.4191C18.0827 11.4191 18.3987 11.4911 18.6947 11.6351C18.9907 11.7711 19.2467 11.9711 19.4627 12.2351C19.6867 12.4991 19.8627 12.8271 19.9907 13.2191C20.1187 13.6111 20.1827 14.0591 20.1827 14.5631ZM19.2227 14.5511C19.2227 14.2311 19.1867 13.9231 19.1147 13.6271C19.0507 13.3311 18.9547 13.0751 18.8267 12.8591C18.6907 12.6351 18.5227 12.4591 18.3227 12.3311C18.1307 12.1951 17.9027 12.1271 17.6387 12.1271C17.1827 12.1271 16.7947 12.3391 16.4747 12.7631C16.1547 13.1871 15.9947 13.7471 15.9947 14.4431C15.9947 14.6831 16.0227 14.9431 16.0787 15.2231C16.1347 15.5031 16.2307 15.7671 16.3667 16.0151C16.4947 16.2551 16.6627 16.4551 16.8707 16.6151C17.0867 16.7751 17.3507 16.8551 17.6627 16.8551C17.9267 16.8551 18.1547 16.7911 18.3467 16.6631C18.5467 16.5351 18.7107 16.3671 18.8387 16.1591C18.9667 15.9431 19.0627 15.6991 19.1267 15.4271C19.1907 15.1471 19.2227 14.8551 19.2227 14.5511ZM27.2166 17.4791H26.1606L25.8606 15.7631C25.7726 15.2831 25.6166 14.8831 25.3926 14.5631C25.1766 14.2431 24.9286 13.9791 24.6486 13.7711C24.5206 13.7951 24.3886 13.8111 24.2526 13.8191C24.1246 13.8191 23.9966 13.8191 23.8686 13.8191L23.1846 13.8071V12.9671H23.8566C24.1126 12.9671 24.3686 12.9471 24.6246 12.9071C24.8806 12.8591 25.1126 12.7711 25.3206 12.6431C25.5286 12.5231 25.6966 12.3591 25.8246 12.1511C25.9606 11.9351 26.0286 11.6591 26.0286 11.3231C26.0286 11.0271 25.9606 10.7791 25.8246 10.5791C25.6966 10.3791 25.5286 10.2191 25.3206 10.0991C25.1126 9.97906 24.8806 9.89506 24.6246 9.84706C24.3686 9.79106 24.1126 9.76306 23.8566 9.76306H22.6206V17.4791H21.6846V8.95906H23.8686C24.2446 8.95906 24.6206 8.99506 24.9966 9.06706C25.3806 9.13106 25.7206 9.25106 26.0166 9.42706C26.3206 9.59506 26.5646 9.83506 26.7486 10.1471C26.9406 10.4511 27.0366 10.8431 27.0366 11.3231C27.0366 11.8831 26.9046 12.3391 26.6406 12.6911C26.3846 13.0351 26.0646 13.2951 25.6806 13.4711C25.9286 13.6871 26.1486 13.9471 26.3406 14.2511C26.5326 14.5471 26.6766 14.9231 26.7726 15.3791L27.2166 17.4791ZM33.4787 14.5991H29.2067C29.2307 14.9511 29.3307 15.3151 29.5067 15.6911C29.6827 16.0591 29.9987 16.3671 30.4547 16.6151C30.5507 16.6791 30.7027 16.7351 30.9107 16.7831C31.1267 16.8311 31.3707 16.8591 31.6427 16.8671C31.9067 16.8671 32.1827 16.8391 32.4707 16.7831C32.7667 16.7271 33.0467 16.6191 33.3107 16.4591V17.1671C32.9587 17.3511 32.5827 17.4711 32.1827 17.5271C31.7907 17.5911 31.4027 17.6031 31.0187 17.5631C30.6347 17.5231 30.2787 17.4391 29.9507 17.3111C29.6227 17.1751 29.3547 16.9991 29.1467 16.7831C28.8747 16.5191 28.6507 16.1871 28.4747 15.7871C28.2987 15.3791 28.2107 14.9071 28.2107 14.3711C28.2107 13.5071 28.4627 12.8031 28.9667 12.2591C29.4787 11.7071 30.1987 11.4311 31.1267 11.4311C31.5187 11.4311 31.8627 11.5071 32.1587 11.6591C32.4547 11.8111 32.6987 12.0071 32.8907 12.2471C33.0827 12.4871 33.2267 12.7591 33.3227 13.0631C33.4267 13.3591 33.4787 13.6591 33.4787 13.9631V14.5991ZM32.5067 13.8911C32.5067 13.7151 32.4827 13.5271 32.4347 13.3271C32.3947 13.1191 32.3187 12.9271 32.2067 12.7511C32.1027 12.5751 31.9587 12.4311 31.7747 12.3191C31.5907 12.1991 31.3627 12.1391 31.0907 12.1391C30.5787 12.1391 30.1467 12.2951 29.7947 12.6071C29.4507 12.9111 29.2507 13.3391 29.1947 13.8911H32.5067ZM39.9874 14.5631C39.9874 14.9471 39.9314 15.3231 39.8194 15.6911C39.7154 16.0511 39.5594 16.3711 39.3514 16.6511C39.1354 16.9311 38.8714 17.1551 38.5594 17.3231C38.2554 17.4911 37.8994 17.5751 37.4914 17.5751C37.0114 17.5751 36.6314 17.4591 36.3514 17.2271C36.0794 16.9951 35.8834 16.7151 35.7634 16.3871H35.7394V19.7231H34.8634V11.5511H35.7394V12.6671H35.7634C35.8114 12.5231 35.8834 12.3791 35.9794 12.2351C36.0754 12.0831 36.1994 11.9471 36.3514 11.8271C36.4954 11.7071 36.6634 11.6111 36.8554 11.5391C37.0554 11.4591 37.2874 11.4191 37.5514 11.4191C37.8874 11.4191 38.2034 11.4911 38.4994 11.6351C38.7954 11.7711 39.0514 11.9711 39.2674 12.2351C39.4914 12.4991 39.6674 12.8271 39.7954 13.2191C39.9234 13.6111 39.9874 14.0591 39.9874 14.5631ZM39.0274 14.5511C39.0274 14.2311 38.9914 13.9231 38.9194 13.6271C38.8554 13.3311 38.7594 13.0751 38.6314 12.8591C38.4954 12.6351 38.3274 12.4591 38.1274 12.3311C37.9354 12.1951 37.7074 12.1271 37.4434 12.1271C36.9874 12.1271 36.5994 12.3391 36.2794 12.7631C35.9594 13.1871 35.7994 13.7471 35.7994 14.4431C35.7994 14.6831 35.8274 14.9431 35.8834 15.2231C35.9394 15.5031 36.0354 15.7671 36.1714 16.0151C36.2994 16.2551 36.4674 16.4551 36.6754 16.6151C36.8914 16.7751 37.1554 16.8551 37.4674 16.8551C37.7314 16.8551 37.9594 16.7911 38.1514 16.6631C38.3514 16.5351 38.5154 16.3671 38.6434 16.1591C38.7714 15.9431 38.8674 15.6991 38.9314 15.4271C38.9954 15.1471 39.0274 14.8551 39.0274 14.5511ZM46.6373 14.5271C46.6373 15.4391 46.3813 16.1751 45.8693 16.7351C45.3653 17.2951 44.6653 17.5751 43.7693 17.5751C42.9293 17.5751 42.2413 17.3111 41.7053 16.7831C41.1693 16.2551 40.9013 15.5071 40.9013 14.5391C40.9013 14.1231 40.9573 13.7311 41.0693 13.3631C41.1893 12.9871 41.3653 12.6551 41.5973 12.3671C41.8373 12.0871 42.1333 11.8631 42.4853 11.6951C42.8453 11.5271 43.2653 11.4431 43.7453 11.4431C44.6413 11.4431 45.3453 11.7271 45.8573 12.2951C46.3773 12.8631 46.6373 13.6071 46.6373 14.5271ZM45.6293 14.5271C45.6293 14.2311 45.5933 13.9391 45.5213 13.6511C45.4573 13.3631 45.3493 13.1071 45.1973 12.8831C45.0453 12.6591 44.8493 12.4791 44.6093 12.3431C44.3693 12.2071 44.0773 12.1391 43.7333 12.1391C43.4053 12.1391 43.1253 12.2071 42.8933 12.3431C42.6613 12.4711 42.4693 12.6431 42.3173 12.8591C42.1653 13.0831 42.0533 13.3391 41.9813 13.6271C41.9173 13.9151 41.8853 14.2191 41.8853 14.5391C41.8853 14.8511 41.9173 15.1471 41.9813 15.4271C42.0533 15.7071 42.1693 15.9551 42.3293 16.1711C42.4813 16.3871 42.6773 16.5591 42.9173 16.6871C43.1573 16.8151 43.4453 16.8791 43.7813 16.8791C44.1093 16.8791 44.3893 16.8151 44.6213 16.6871C44.8533 16.5591 45.0453 16.3831 45.1973 16.1591C45.3413 15.9431 45.4493 15.6951 45.5213 15.4151C45.5933 15.1271 45.6293 14.8311 45.6293 14.5271ZM51.4681 12.3551C51.2121 12.3551 50.9521 12.3871 50.6881 12.4511C50.4321 12.5071 50.1921 12.5991 49.9681 12.7271C49.7441 12.8551 49.5481 13.0231 49.3801 13.2311C49.2121 13.4311 49.0921 13.6711 49.0201 13.9511C48.9801 14.1111 48.9481 14.2831 48.9241 14.4671C48.9081 14.6431 48.9001 14.8311 48.9001 15.0311V17.4671H48.0241V11.5871H48.9001V12.8951H48.9241C49.1561 12.4231 49.4801 12.0671 49.8961 11.8271C50.3201 11.5791 50.8441 11.4551 51.4681 11.4551V12.3551ZM55.5015 12.3551H53.7735V15.5231C53.7735 15.7071 53.7815 15.8831 53.7975 16.0511C53.8135 16.2111 53.8575 16.3551 53.9295 16.4831C53.9935 16.6111 54.0935 16.7111 54.2295 16.7831C54.3655 16.8551 54.5495 16.8911 54.7815 16.8911C54.9175 16.8911 55.0455 16.8871 55.1655 16.8791C55.2855 16.8631 55.3855 16.8431 55.4655 16.8191V17.5631C55.3135 17.5871 55.1655 17.5991 55.0215 17.5991C54.8855 17.6071 54.7495 17.6111 54.6135 17.6111C54.0215 17.6111 53.5815 17.4911 53.2935 17.2511C53.0055 17.0031 52.8615 16.6271 52.8615 16.1231V12.3551H51.8175V11.6471H52.8615V10.2071L53.7735 9.65506V11.6471H55.5015V12.3551Z" fill="black"/>
<path d="M15.9663 5.42389L13.5622 3.35977C13.5622 3.35977 7.1401 8.26619 7.64443 8.79922C8.14876 9.33225 13.4606 6.10977 13.4606 6.10977L16.0556 8.21875L21.1445 4.32449C21.1445 4.32449 22.8786 6.47207 23.4844 6.29691C24.1328 6.10941 24.7068 0.646134 24.3828 0.167861C23.9646 -0.449635 18.1741 -0.772732 17.8591 -0.120575C17.5643 0.489735 19.3551 2.57852 19.3551 2.57852L15.9663 5.42389Z" fill="#0097B2"/>
<path d="M7.24791 16.9881H6.17991L5.29191 14.3601H1.99191L1.05591 16.9881H0.10791L3.09591 8.45605H4.23591L7.24791 16.9881ZM5.01591 13.5561L3.63591 9.47605H3.61191L2.24391 13.5561H5.01591ZM13.3707 14.0841C13.3707 14.4681 13.3147 14.8441 13.2027 15.2121C13.0987 15.5721 12.9427 15.8921 12.7347 16.1721C12.5187 16.4521 12.2547 16.6761 11.9427 16.8441C11.6387 17.0121 11.2827 17.0961 10.8747 17.0961C10.3947 17.0961 10.0147 16.9801 9.73472 16.7481C9.46272 16.5161 9.26672 16.2361 9.14672 15.9081H9.12272V19.2441H8.24672V11.0721H9.12272V12.1881H9.14672C9.19472 12.0441 9.26672 11.9001 9.36272 11.7561C9.45872 11.6041 9.58272 11.4681 9.73472 11.3481C9.87872 11.2281 10.0467 11.1321 10.2387 11.0601C10.4387 10.9801 10.6707 10.9401 10.9347 10.9401C11.2707 10.9401 11.5867 11.0121 11.8827 11.1561C12.1787 11.2921 12.4347 11.4921 12.6507 11.7561C12.8747 12.0201 13.0507 12.3481 13.1787 12.7401C13.3067 13.1321 13.3707 13.5801 13.3707 14.0841ZM12.4107 14.0721C12.4107 13.7521 12.3747 13.4441 12.3027 13.1481C12.2387 12.8521 12.1427 12.5961 12.0147 12.3801C11.8787 12.1561 11.7107 11.9801 11.5107 11.8521C11.3187 11.7161 11.0907 11.6481 10.8267 11.6481C10.3707 11.6481 9.98272 11.8601 9.66272 12.2841C9.34272 12.7081 9.18272 13.2681 9.18272 13.9641C9.18272 14.2041 9.21072 14.4641 9.26672 14.7441C9.32272 15.0241 9.41872 15.2881 9.55472 15.5361C9.68272 15.7761 9.85072 15.9761 10.0587 16.1361C10.2747 16.2961 10.5387 16.3761 10.8507 16.3761C11.1147 16.3761 11.3427 16.3121 11.5347 16.1841C11.7347 16.0561 11.8987 15.8881 12.0267 15.6801C12.1547 15.4641 12.2507 15.2201 12.3147 14.9481C12.3787 14.6681 12.4107 14.3761 12.4107 14.0721ZM19.7926 14.0841C19.7926 14.4681 19.7366 14.8441 19.6246 15.2121C19.5206 15.5721 19.3646 15.8921 19.1566 16.1721C18.9406 16.4521 18.6766 16.6761 18.3646 16.8441C18.0606 17.0121 17.7046 17.0961 17.2966 17.0961C16.8166 17.0961 16.4366 16.9801 16.1566 16.7481C15.8846 16.5161 15.6886 16.2361 15.5686 15.9081H15.5446V19.2441H14.6686V11.0721H15.5446V12.1881H15.5686C15.6166 12.0441 15.6886 11.9001 15.7846 11.7561C15.8806 11.6041 16.0046 11.4681 16.1566 11.3481C16.3006 11.2281 16.4686 11.1321 16.6606 11.0601C16.8606 10.9801 17.0926 10.9401 17.3566 10.9401C17.6926 10.9401 18.0086 11.0121 18.3046 11.1561C18.6006 11.2921 18.8566 11.4921 19.0726 11.7561C19.2966 12.0201 19.4726 12.3481 19.6006 12.7401C19.7286 13.1321 19.7926 13.5801 19.7926 14.0841ZM18.8326 14.0721C18.8326 13.7521 18.7966 13.4441 18.7246 13.1481C18.6606 12.8521 18.5646 12.5961 18.4366 12.3801C18.3006 12.1561 18.1326 11.9801 17.9326 11.8521C17.7406 11.7161 17.5126 11.6481 17.2486 11.6481C16.7926 11.6481 16.4046 11.8601 16.0846 12.2841C15.7646 12.7081 15.6046 13.2681 15.6046 13.9641C15.6046 14.2041 15.6326 14.4641 15.6886 14.7441C15.7446 15.0241 15.8406 15.2881 15.9766 15.5361C16.1046 15.7761 16.2726 15.9761 16.4806 16.1361C16.6966 16.2961 16.9606 16.3761 17.2726 16.3761C17.5366 16.3761 17.7646 16.3121 17.9566 16.1841C18.1566 16.0561 18.3206 15.8881 18.4486 15.6801C18.5766 15.4641 18.6726 15.2201 18.7366 14.9481C18.8006 14.6681 18.8326 14.3761 18.8326 14.0721ZM26.8265 17.0001H25.7705L25.4705 15.2841C25.3825 14.8041 25.2265 14.4041 25.0025 14.0841C24.7865 13.7641 24.5385 13.5001 24.2585 13.2921C24.1305 13.3161 23.9985 13.3321 23.8625 13.3401C23.7345 13.3401 23.6065 13.3401 23.4785 13.3401L22.7945 13.3281V12.4881H23.4665C23.7225 12.4881 23.9785 12.4681 24.2345 12.4281C24.4905 12.3801 24.7225 12.2921 24.9305 12.1641C25.1385 12.0441 25.3065 11.8801 25.4345 11.6721C25.5705 11.4561 25.6385 11.1801 25.6385 10.8441C25.6385 10.5481 25.5705 10.3001 25.4345 10.1001C25.3065 9.90005 25.1385 9.74005 24.9305 9.62005C24.7225 9.50005 24.4905 9.41605 24.2345 9.36805C23.9785 9.31205 23.7225 9.28405 23.4665 9.28405H22.2305V17.0001H21.2945V8.48005H23.4785C23.8545 8.48005 24.2305 8.51605 24.6065 8.58805C24.9905 8.65205 25.3305 8.77205 25.6265 8.94805C25.9305 9.11605 26.1745 9.35605 26.3585 9.66805C26.5505 9.97205 26.6465 10.3641 26.6465 10.8441C26.6465 11.4041 26.5145 11.8601 26.2505 12.2121C25.9945 12.5561 25.6745 12.8161 25.2905 12.9921C25.5385 13.2081 25.7585 13.4681 25.9505 13.7721C26.1425 14.0681 26.2865 14.4441 26.3825 14.9001L26.8265 17.0001ZM33.0886 14.1201H28.8166C28.8406 14.4721 28.9406 14.8361 29.1166 15.2121C29.2926 15.5801 29.6086 15.8881 30.0646 16.1361C30.1606 16.2001 30.3126 16.2561 30.5206 16.3041C30.7366 16.3521 30.9806 16.3801 31.2526 16.3881C31.5166 16.3881 31.7926 16.3601 32.0806 16.3041C32.3766 16.2481 32.6566 16.1401 32.9206 15.9801V16.6881C32.5686 16.8721 32.1926 16.9921 31.7926 17.0481C31.4006 17.1121 31.0126 17.1241 30.6286 17.0841C30.2446 17.0441 29.8886 16.9601 29.5606 16.8321C29.2326 16.6961 28.9646 16.5201 28.7566 16.3041C28.4846 16.0401 28.2606 15.7081 28.0846 15.3081C27.9086 14.9001 27.8206 14.4281 27.8206 13.8921C27.8206 13.0281 28.0726 12.3241 28.5766 11.7801C29.0886 11.2281 29.8086 10.9521 30.7366 10.9521C31.1286 10.9521 31.4726 11.0281 31.7686 11.1801C32.0646 11.3321 32.3086 11.5281 32.5006 11.7681C32.6926 12.0081 32.8366 12.2801 32.9326 12.5841C33.0366 12.8801 33.0886 13.1801 33.0886 13.4841V14.1201ZM32.1166 13.4121C32.1166 13.2361 32.0926 13.0481 32.0446 12.8481C32.0046 12.6401 31.9286 12.4481 31.8166 12.2721C31.7126 12.0961 31.5686 11.9521 31.3846 11.8401C31.2006 11.7201 30.9726 11.6601 30.7006 11.6601C30.1886 11.6601 29.7566 11.8161 29.4046 12.1281C29.0606 12.4321 28.8606 12.8601 28.8046 13.4121H32.1166ZM39.5973 14.0841C39.5973 14.4681 39.5413 14.8441 39.4293 15.2121C39.3253 15.5721 39.1693 15.8921 38.9613 16.1721C38.7453 16.4521 38.4813 16.6761 38.1693 16.8441C37.8653 17.0121 37.5093 17.0961 37.1013 17.0961C36.6213 17.0961 36.2413 16.9801 35.9613 16.7481C35.6893 16.5161 35.4933 16.2361 35.3733 15.9081H35.3493V19.2441H34.4733V11.0721H35.3493V12.1881H35.3733C35.4213 12.0441 35.4933 11.9001 35.5893 11.7561C35.6853 11.6041 35.8093 11.4681 35.9613 11.3481C36.1053 11.2281 36.2733 11.1321 36.4653 11.0601C36.6653 10.9801 36.8973 10.9401 37.1613 10.9401C37.4973 10.9401 37.8133 11.0121 38.1093 11.1561C38.4053 11.2921 38.6613 11.4921 38.8773 11.7561C39.1013 12.0201 39.2773 12.3481 39.4053 12.7401C39.5333 13.1321 39.5973 13.5801 39.5973 14.0841ZM38.6373 14.0721C38.6373 13.7521 38.6013 13.4441 38.5293 13.1481C38.4653 12.8521 38.3693 12.5961 38.2413 12.3801C38.1053 12.1561 37.9373 11.9801 37.7373 11.8521C37.5453 11.7161 37.3173 11.6481 37.0533 11.6481C36.5973 11.6481 36.2093 11.8601 35.8893 12.2841C35.5693 12.7081 35.4093 13.2681 35.4093 13.9641C35.4093 14.2041 35.4373 14.4641 35.4933 14.7441C35.5493 15.0241 35.6453 15.2881 35.7813 15.5361C35.9093 15.7761 36.0773 15.9761 36.2853 16.1361C36.5013 16.2961 36.7653 16.3761 37.0773 16.3761C37.3413 16.3761 37.5693 16.3121 37.7613 16.1841C37.9613 16.0561 38.1253 15.8881 38.2533 15.6801C38.3813 15.4641 38.4773 15.2201 38.5413 14.9481C38.6053 14.6681 38.6373 14.3761 38.6373 14.0721ZM46.2472 14.0481C46.2472 14.9601 45.9912 15.6961 45.4792 16.2561C44.9752 16.8161 44.2752 17.0961 43.3792 17.0961C42.5392 17.0961 41.8512 16.8321 41.3152 16.3041C40.7792 15.7761 40.5112 15.0281 40.5112 14.0601C40.5112 13.6441 40.5672 13.2521 40.6792 12.8841C40.7992 12.5081 40.9752 12.1761 41.2072 11.8881C41.4472 11.6081 41.7432 11.3841 42.0952 11.2161C42.4552 11.0481 42.8752 10.9641 43.3552 10.9641C44.2512 10.9641 44.9552 11.2481 45.4672 11.8161C45.9872 12.3841 46.2472 13.1281 46.2472 14.0481ZM45.2392 14.0481C45.2392 13.7521 45.2032 13.4601 45.1312 13.1721C45.0672 12.8841 44.9592 12.6281 44.8072 12.4041C44.6552 12.1801 44.4592 12.0001 44.2192 11.8641C43.9792 11.7281 43.6872 11.6601 43.3432 11.6601C43.0152 11.6601 42.7352 11.7281 42.5032 11.8641C42.2712 11.9921 42.0792 12.1641 41.9272 12.3801C41.7752 12.6041 41.6632 12.8601 41.5912 13.1481C41.5272 13.4361 41.4952 13.7401 41.4952 14.0601C41.4952 14.3721 41.5272 14.6681 41.5912 14.9481C41.6632 15.2281 41.7792 15.4761 41.9392 15.6921C42.0912 15.9081 42.2872 16.0801 42.5272 16.2081C42.7672 16.3361 43.0552 16.4001 43.3912 16.4001C43.7192 16.4001 43.9992 16.3361 44.2312 16.2081C44.4632 16.0801 44.6552 15.9041 44.8072 15.6801C44.9512 15.4641 45.0592 15.2161 45.1312 14.9361C45.2032 14.6481 45.2392 14.3521 45.2392 14.0481ZM51.078 11.8761C50.822 11.8761 50.562 11.9081 50.298 11.9721C50.042 12.0281 49.802 12.1201 49.578 12.2481C49.354 12.3761 49.158 12.5441 48.99 12.7521C48.822 12.9521 48.702 13.1921 48.63 13.4721C48.59 13.6321 48.558 13.8041 48.534 13.9881C48.518 14.1641 48.51 14.3521 48.51 14.5521V16.9881H47.634V11.1081H48.51V12.4161H48.534C48.766 11.9441 49.09 11.5881 49.506 11.3481C49.93 11.1001 50.454 10.9761 51.078 10.9761V11.8761ZM55.1114 11.8761H53.3834V15.0441C53.3834 15.2281 53.3914 15.4041 53.4074 15.5721C53.4234 15.7321 53.4674 15.8761 53.5394 16.0041C53.6034 16.1321 53.7034 16.2321 53.8394 16.3041C53.9754 16.3761 54.1594 16.4121 54.3914 16.4121C54.5274 16.4121 54.6554 16.4081 54.7754 16.4001C54.8954 16.3841 54.9954 16.3641 55.0754 16.3401V17.0841C54.9234 17.1081 54.7754 17.1201 54.6314 17.1201C54.4954 17.1281 54.3594 17.1321 54.2234 17.1321C53.6314 17.1321 53.1914 17.0121 52.9034 16.7721C52.6154 16.5241 52.4714 16.1481 52.4714 15.6441V11.8761H51.4274V11.1681H52.4714V9.72805L53.3834 9.17605V11.1681H55.1114V11.8761Z" fill="#0097B2"/>
</g>
<defs>
<clipPath id="clip0_30_8">
<rect width="56" height="19" fill="white"/>
</clipPath>
</defs>
</svg>
